<svg xmlns="http://www.w3.org/2000/svg" version="1.1" xmlns:xlink="http://www.w3.org/1999/xlink" xmlns:svgjs="http://svgjs.com/svgjs" width="300.000000pt" height="300.000000pt"><svg version="1.0" xmlns="http://www.w3.org/2000/svg" width="300.000000pt" height="300.000000pt" viewBox="0 0 300.000000 300.000000" preserveAspectRatio="xMidYMid meet">
<metadata>
Created by potrace 1.10, written by Peter Selinger 2001-2011
</metadata>
<g transform="translate(0.000000,300.000000) scale(0.100000,-0.100000)" fill="#000000" stroke="none">
<path d="M1498 2875 c-3 -6 -17 -50 -32 -100 -15 -49 -34 -110 -44 -135 -9
-25 -17 -49 -18 -55 -1 -5 -25 -80 -54 -165 -28 -85 -53 -162 -55 -170 -2 -8
-30 -93 -62 -188 l-58 -174 -523 1 c-288 1 -521 -2 -519 -7 3 -4 32 -25 64
-47 32 -22 203 -146 380 -275 177 -129 331 -242 343 -250 57 -39 65 -47 53
-62 -7 -7 -14 -25 -16 -38 -3 -14 -12 -43 -20 -65 -15 -39 -149 -450 -153
-470 -1 -5 -31 -97 -66 -202 -36 -106 -63 -193 -60 -193 2 0 59 40 126 88 66
49 182 133 257 188 75 54 147 106 159 114 31 21 131 94 222 162 l77 57 88 -64
c48 -36 102 -74 118 -85 56 -39 150 -107 390 -283 132 -97 243 -177 246 -177
4 0 -17 71 -46 158 -28 86 -89 272 -134 412 -46 140 -95 292 -111 336 l-28 81
41 30 c23 16 112 81 197 143 201 148 439 321 537 390 l77 55 -149 3 c-83 1
-319 1 -525 0 l-375 -3 -44 135 c-25 74 -43 135 -42 135 1 0 -5 18 -14 39 -9
22 -18 47 -20 56 -2 9 -21 70 -43 136 -38 115 -151 469 -156 489 -1 6 -4 6 -8
0z m66 -280 c2 -5 10 -27 20 -47 9 -21 16 -43 16 -49 0 -10 48 -166 69 -224
23 -61 51 -156 51 -169 0 -9 4 -16 9 -16 5 0 17 -34 27 -75 10 -41 27 -92 39
-113 l21 -37 449 -2 c248 -1 468 -3 489 -3 l40 0 -75 -56 c-41 -30 -83 -62
-94 -70 -25 -18 -157 -112 -195 -139 -128 -90 -411 -300 -421 -311 -9 -11 -3
-40 28 -137 23 -67 59 -183 83 -257 23 -74 46 -143 51 -152 5 -10 9 -27 9 -37
0 -11 5 -23 10 -26 6 -3 10 -14 10 -23 0 -9 9 -39 19 -67 31 -78 79 -235 73
-235 -12 0 -263 179 -364 260 -20 17 -39 30 -42 30 -3 0 -14 6 -23 14 -18 14
-242 179 -315 231 -22 17 -44 24 -55 21 -10 -3 -58 -36 -108 -72 -49 -36 -101
-73 -115 -82 -14 -9 -71 -51 -126 -92 -56 -41 -155 -113 -219 -160 -65 -47
-138 -100 -162 -117 -43 -33 -81 -47 -55 -21 7 7 12 22 12 33 0 12 3 25 7 29
4 3 8 16 10 28 2 12 10 35 18 51 8 17 15 38 15 49 0 10 4 18 9 18 6 0 9 8 9
18 -2 23 33 142 41 142 4 0 8 12 9 27 1 15 7 32 12 37 6 6 10 18 10 28 0 10 4
26 9 36 7 15 75 219 77 232 4 32 39 130 46 130 5 0 8 15 6 32 -2 27 -14 41
-65 78 -193 142 -282 207 -403 294 -74 54 -144 104 -155 112 -11 8 -53 39 -94
69 l-75 55 486 0 c551 0 501 -8 534 90 10 30 19 61 20 68 1 8 6 21 10 30 4 9
15 44 24 77 10 33 23 76 30 95 13 36 15 41 45 125 9 28 21 68 27 90 5 21 13
44 18 50 5 7 12 22 14 36 3 13 5 24 6 24 1 0 3 8 5 18 2 10 7 26 11 35 10 22
9 21 18 65 5 20 12 37 17 37 5 0 9 13 9 28 0 15 5 33 12 40 9 9 18 -8 41 -76
16 -48 30 -91 31 -97z"></path>
<path d="M1481 2453 c-1 -6 -4 -20 -7 -30 -5 -17 -5 -17 6 0 6 10 9 23 6 30
-3 9 -5 9 -5 0z"></path>
<path d="M1611 2144 c0 -11 3 -14 6 -6 3 7 2 16 -1 19 -3 4 -6 -2 -5 -13z"></path>
<path d="M1631 2084 c0 -11 3 -14 6 -6 3 7 2 16 -1 19 -3 4 -6 -2 -5 -13z"></path>
<path d="M1331 1989 c-7 -22 -11 -43 -8 -45 2 -2 9 14 16 37 7 22 11 43 8 45
-2 2 -9 -14 -16 -37z"></path>
<path d="M1661 1985 c1 -19 18 -51 18 -35 0 8 -4 22 -9 30 -5 8 -9 11 -9 5z"></path>
<path d="M1180 1770 l-85 -6 88 -2 c52 -1 87 2 87 8 0 6 -1 9 -2 8 -2 -1 -41
-5 -88 -8z"></path>
<path d="M1730 1770 c0 -5 5 -10 11 -10 5 0 7 5 4 10 -3 6 -8 10 -11 10 -2 0
-4 -4 -4 -10z"></path>
<path d="M538 1763 c7 -3 16 -2 19 1 4 3 -2 6 -13 5 -11 0 -14 -3 -6 -6z"></path>
<path d="M657 1763 c51 -2 135 -2 185 0 51 1 10 3 -92 3 -102 0 -143 -2 -93
-3z"></path>
<path d="M978 1763 c23 -2 59 -2 80 0 20 2 1 4 -43 4 -44 0 -61 -2 -37 -4z"></path>
<path d="M1923 1763 c93 -2 241 -2 330 0 89 1 14 3 -168 3 -181 0 -254 -2
-162 -3z"></path>
<path d="M2428 1763 c6 -2 18 -2 25 0 6 3 1 5 -13 5 -14 0 -19 -2 -12 -5z"></path>
<path d="M531 1737 c2 -1 15 -11 29 -22 l25 -20 -19 23 c-11 12 -24 22 -29 22
-6 0 -8 -1 -6 -3z"></path>
<path d="M2409 1699 l-24 -20 28 17 c15 9 27 18 27 20 0 8 -8 4 -31 -17z"></path>
<path d="M620 1676 c0 -2 7 -9 15 -16 9 -7 15 -8 15 -2 0 5 -7 12 -15 16 -8 3
-15 4 -15 2z"></path>
<path d="M2359 1663 c-13 -16 -12 -17 4 -4 9 7 17 15 17 17 0 8 -8 3 -21 -13z"></path>
<path d="M2305 1624 l-30 -26 33 22 c17 12 32 23 32 26 0 7 -4 5 -35 -22z"></path>
<path d="M730 1596 c0 -2 8 -10 18 -17 15 -13 16 -12 3 4 -13 16 -21 21 -21
13z"></path>
<path d="M2249 1583 c-13 -16 -12 -17 4 -4 9 7 17 15 17 17 0 8 -8 3 -21 -13z"></path>
<path d="M780 1558 c23 -23 125 -94 118 -82 -4 6 -35 30 -70 54 -35 24 -56 36
-48 28z"></path>
<path d="M2195 1544 l-30 -26 33 22 c17 12 32 23 32 26 0 7 -4 5 -35 -22z"></path>
<path d="M2090 1469 c-35 -31 -35 -31 -3 -9 18 11 35 25 38 30 10 16 2 11 -35
-21z"></path>
<path d="M910 1465 c0 -7 111 -87 115 -83 2 1 -23 22 -56 45 -32 24 -59 41
-59 38z"></path>
<path d="M2029 1423 c-13 -16 -12 -17 4 -4 9 7 17 15 17 17 0 8 -8 3 -21 -13z"></path>
<path d="M1975 1384 l-30 -26 33 22 c17 12 32 23 32 26 0 7 -4 5 -35 -22z"></path>
<path d="M1041 1367 c2 -1 15 -11 29 -22 l25 -20 -19 23 c-11 12 -24 22 -29
22 -6 0 -8 -1 -6 -3z"></path>
<path d="M1905 1335 c-16 -13 -27 -26 -25 -28 3 -3 19 8 35 24 36 35 31 37
-10 4z"></path>
<path d="M1102 1280 c0 -14 2 -19 5 -12 2 6 2 18 0 25 -3 6 -5 1 -5 -13z"></path>
<path d="M1891 1285 c1 -19 18 -51 18 -35 0 8 -4 22 -9 30 -5 8 -9 11 -9 5z"></path>
<path d="M1081 1214 c0 -11 3 -14 6 -6 3 7 2 16 -1 19 -3 4 -6 -2 -5 -13z"></path>
<path d="M1066 1175 c-3 -9 -6 -22 -5 -28 0 -7 5 -1 10 12 5 13 8 26 5 28 -2
2 -6 -3 -10 -12z"></path>
<path d="M1951 1094 c0 -11 3 -14 6 -6 3 7 2 16 -1 19 -3 4 -6 -2 -5 -13z"></path>
<path d="M1479 1023 c-13 -15 -12 -15 5 -6 16 9 31 2 88 -38 37 -27 71 -49 75
-49 9 0 -139 109 -148 110 -4 0 -13 -8 -20 -17z"></path>
<path d="M1425 984 l-30 -26 33 22 c17 12 32 23 32 26 0 7 -4 5 -35 -22z"></path>
<path d="M1001 973 c-1 -6 -4 -20 -7 -30 -5 -17 -5 -17 6 0 6 10 9 23 6 30 -3
9 -5 9 -5 0z"></path>
<path d="M1369 943 c-13 -16 -12 -17 4 -4 16 13 21 21 13 21 -2 0 -10 -8 -17
-17z"></path>
<path d="M1298 895 c-27 -20 -48 -37 -48 -40 0 -3 23 11 50 31 43 31 58 45 48
44 -2 0 -24 -16 -50 -35z"></path>
<path d="M1680 907 c0 -3 17 -17 37 -33 20 -15 33 -23 29 -16 -8 13 -66 56
-66 49z"></path>
<path d="M1764 841 c7 -11 46 -35 46 -28 0 3 -12 12 -26 22 -15 9 -23 12 -20
6z"></path>
<path d="M1166 800 c-52 -40 -58 -47 -18 -24 29 17 72 54 61 54 -2 0 -21 -14
-43 -30z"></path>
<path d="M941 784 c0 -11 3 -14 6 -6 3 7 2 16 -1 19 -3 4 -6 -2 -5 -13z"></path>
<path d="M1830 796 c0 -7 100 -79 104 -75 2 2 -20 21 -50 42 -30 21 -54 36
-54 33z"></path>
<path d="M2051 790 c0 -8 4 -22 9 -30 12 -18 12 -2 0 25 -6 13 -9 15 -9 5z"></path>
<path d="M1079 733 c-13 -17 -13 -17 6 -3 11 8 22 16 24 17 2 2 0 3 -6 3 -6 0
-17 -8 -24 -17z"></path>
<path d="M1039 703 c-13 -16 -12 -17 4 -4 9 7 17 15 17 17 0 8 -8 3 -21 -13z"></path>
<path d="M1972 694 c4 -5 28 -25 54 -44 26 -18 45 -29 42 -24 -4 5 -28 25 -54
44 -26 18 -45 29 -42 24z"></path>
<path d="M983 668 c-18 -13 -33 -27 -33 -32 0 -5 12 1 28 15 15 13 31 27 37
31 20 17 -2 7 -32 -14z"></path>
<path d="M2091 664 c0 -11 3 -14 6 -6 3 7 2 16 -1 19 -3 4 -6 -2 -5 -13z"></path>
<path d="M920 620 c-9 -6 -10 -10 -3 -10 6 0 15 5 18 10 8 12 4 12 -15 0z"></path>
</g>
</svg><style>@media (prefers-color-scheme: light) { :root { filter: none; } }
</style></svg>